<?xml version="1.0" encoding="UTF-8"?>
<!DOCTYPE svg PUBLIC "-//W3C//DTD SVG 1.1//EN" "http://www.w3.org/Graphics/SVG/1.1/DTD/svg11.dtd">
<!-- Creator: CorelDRAW 2019 (64-Bit) -->
<svg xmlns="http://www.w3.org/2000/svg" xml:space="preserve" width="11.43cm" height="7.61999cm" version="1.1" style="shape-rendering:geometricPrecision; text-rendering:geometricPrecision; image-rendering:optimizeQuality; fill-rule:evenodd; clip-rule:evenodd"
viewBox="0 0 11429.98 7619.98"
 xmlns:xlink="http://www.w3.org/1999/xlink"
 xmlns:xodm="http://www.corel.com/coreldraw/odm/2003">
 <defs>
  <style type="text/css">
   <![CDATA[
    .fil4 {fill:none}
    .fil3 {fill:#CAE9EB;fill-rule:nonzero}
    .fil1 {fill:#B0DFE2;fill-rule:nonzero}
    .fil2 {fill:#5EC6CC;fill-rule:nonzero}
    .fil0 {fill:#00ACB1;fill-rule:nonzero}
   ]]>
  </style>
   <clipPath id="id0">
    <path d="M-0 0l11429.98 0 0 7619.98 -11429.98 0 0 -7619.98z"/>
   </clipPath>
 </defs>
 <g id="Capa_x0020_1">
  <metadata id="CorelCorpID_0Corel-Layer"/>
  <g>
  </g>
  <g style="clip-path:url(#id0)">
   <g>
    <g id="_2138491776544">
     <path class="fil0" d="M-1861.01 -397.54l779.67 -594.65 2.97 -622.29 25.89 -302.11 110.42 -771.57 726.94 432.72 6.14 189.69 35.86 1089.54 755.52 586.68 217.05 385.97 -41.18 4288.13c-187.74,280.93 -622.38,921.39 -822.81,1216.38l-1965.23 -59.19 -48.26 -5381.04 217.02 -458.26z"/>
     <polygon class="fil1" points="-666.06,-1897.84 -179.38,-1165.86 -1052.48,-1627.98 "/>
     <polygon class="fil2" points="-771.92,-1479.51 -1081.38,-992.23 -179.38,-1165.86 "/>
     <polygon class="fil3" points="-108.08,-925.84 -1081.38,-992.23 -179.38,-1165.86 -173.12,-976.25 "/>
     <polygon class="fil1" points="799.41,48.6 -285.61,-678.99 595.9,-365.67 799.41,-3.56 "/>
     <polygon class="fil2" points="-285.61,-678.99 -2071.03,840.38 -1135.13,-951.21 -1065.98,-986.58 "/>
     <polygon class="fil2" points="-285.61,-678.99 785.87,1406.94 799.45,48.6 "/>
     <polygon class="fil1" points="-1148.5,-925.84 -2071.03,840.43 -2078.03,60.72 "/>
     <polygon class="fil2" points="766.56,1528.91 -1197,2111.52 -1251.52,151.01 "/>
     <polygon class="fil2" points="-1197,2111.52 -2048.47,3360.01 -2071.03,840.38 "/>
     <polygon class="fil3" points="-235.89,2383.74 -2048.47,3360.01 -1197,2111.52 "/>
     <polygon class="fil1" points="-235.89,2383.74 759.9,4119.72 785.34,2741.05 "/>
     <polygon class="fil2" points="-1073.37,-2688.2 -942.06,-2688.2 -1065.24,-1643.35 "/>
     <polygon class="fil1" points="-229.27,-2688.2 -215.12,-2255.44 -942.06,-2688.2 "/>
     <path class="fil2" d="M747.21 5441.76l-771.66 60.17 -40.09 -0.98c200.43,-294.99 635.11,-935.45 822.85,-1216.38l-11.1 1157.19z"/>
     <polygon class="fil2" points="-235.89,2383.74 -124.91,4119.72 -2048.47,3360.01 "/>
     <polygon class="fil3" points="-124.91,4119.72 -64.54,5500.95 -1314.5,4489.35 "/>
     <polygon class="fil1" points="-1314.45,4489.35 -2029.77,3448.56 -2048.47,3360.01 -124.91,4119.72 "/>
     <polygon class="fil2" points="-2029.77,5441.76 -1314.5,4489.35 -64.54,5500.95 "/>
     <polygon class="fil2" points="-215.12,-2255.44 -666.06,-1897.88 -179.38,-1165.86 "/>
    </g>
    <g id="_2138491747936">
     <path class="fil0" d="M13357.44 8007.11l-779.67 594.65 -2.97 622.29 -25.89 302.11 -110.42 771.57 -726.94 -432.72 -6.14 -189.69 -35.86 -1089.54 -755.52 -586.68 -217.05 -385.97 41.18 -4288.13c187.74,-280.93 622.38,-921.39 822.81,-1216.38l1965.23 59.19 48.26 5381.04 -217.02 458.26z"/>
     <polygon class="fil1" points="12162.49,9507.41 11675.81,8775.43 12548.91,9237.55 "/>
     <polygon class="fil2" points="12268.35,9089.08 12577.81,8601.8 11675.81,8775.43 "/>
     <polygon class="fil3" points="11604.51,8535.41 12577.81,8601.8 11675.81,8775.43 11669.55,8585.82 "/>
     <polygon class="fil1" points="10697.02,7560.97 11782.04,8288.56 10900.53,7975.24 10697.02,7613.13 "/>
     <polygon class="fil2" points="11782.04,8288.56 13567.46,6769.19 12631.56,8560.78 12562.41,8596.15 "/>
     <polygon class="fil2" points="11782.04,8288.56 10710.56,6202.63 10696.98,7560.97 "/>
     <polygon class="fil1" points="12644.93,8535.41 13567.46,6769.14 13574.46,7548.85 "/>
     <polygon class="fil2" points="10729.87,6080.66 12693.43,5498.06 12747.95,7458.56 "/>
     <polygon class="fil2" points="12693.43,5498.06 13544.9,4249.57 13567.46,6769.19 "/>
     <polygon class="fil3" points="11732.32,5225.84 13544.9,4249.57 12693.43,5498.06 "/>
     <polygon class="fil1" points="11732.32,5225.84 10736.53,3489.86 10711.09,4868.53 "/>
     <polygon class="fil2" points="12569.8,10297.77 12438.49,10297.77 12561.67,9252.92 "/>
     <polygon class="fil1" points="11725.7,10297.77 11711.55,9865.01 12438.49,10297.77 "/>
     <path class="fil2" d="M10749.22 2167.82l771.66 -60.17 40.09 0.98c-200.43,294.99 -635.11,935.45 -822.85,1216.38l11.1 -1157.19z"/>
     <polygon class="fil2" points="11732.32,5225.84 11621.34,3489.86 13544.9,4249.57 "/>
     <polygon class="fil3" points="11621.34,3489.86 11560.97,2108.63 12810.93,3120.23 "/>
     <polygon class="fil1" points="12810.88,3120.23 13526.2,4161.02 13544.9,4249.57 11621.34,3489.86 "/>
     <polygon class="fil2" points="13526.2,2167.82 12810.93,3120.23 11560.97,2108.63 "/>
     <polygon class="fil2" points="11711.55,9865.01 12162.49,9507.45 11675.81,8775.43 "/>
    </g>
   </g>
  </g>
  <polygon class="fil4" points="-0,0 11429.98,0 11429.98,7619.98 -0,7619.98 "/>
 </g>
</svg>
