<svg xmlns="http://www.w3.org/2000/svg" width="512" height="512" fill-rule="evenodd" clip-rule="evenodd" image-rendering="optimizeQuality" shape-rendering="geometricPrecision" text-rendering="geometricPrecision" viewBox="0 0 512 512"><rect width="512" height="512" fill="none"/><polygon fill="#e6e6e6" points="256 106 321 143 386 181 386 256 386 331 321 369 256 406 191 369 126 331 126 256 126 181 191 143"/><polygon fill="#d0cecf" points="256 406 191 369 126 331 126 256 126 181 191 143 256 106"/><polygon fill="#e6e6e6" points="256 131 310 162 364 193 364 256 364 319 310 350 256 381 202 350 148 319 148 256 148 193 202 162"/><path fill="#d42b25" d="M306 212c-2,1 -50,28 -50,28 -1,0 -33,-18 -38,-21 -4,-2 -9,-5 -13,-7 -4,-1 -9,0 -11,3 -3,3 -4,5 -4,10l0 60c0,5 0,8 3,11 3,3 5,4 11,4l0 -74 26 15c4,3 8,5 13,7 2,2 4,3 6,4 2,1 4,2 7,4 1,0 5,-3 6,-4 2,-1 4,-2 7,-3l25 -15c5,-3 9,-5 13,-8l1 0c0,0 2,-1 3,-2l7 -4c0,0 2,-1 3,-2 -1,-2 -4,-4 -5,-5 -3,-1 -7,-2 -10,-1z"/><path fill="#fefefe" d="M308 300l0 0c-1,-1 -9,-7 -10,-8l-7 -6c0,-1 -1,-1 -1,-1l-28 -24c0,0 0,0 -1,0 -1,-2 -4,-4 -5,-5 0,1 0,0 0,1l-7 6c-2,2 -5,4 -7,6l-11 9c-2,2 -1,2 -4,4l-3 2c-3,3 -17,15 -18,16l102 0z"/><path fill="#d0cecf" d="M256 256c-1,1 0,0 -1,0l-9 8c-1,1 -1,1 -2,1 -2,2 -6,6 -8,7 0,1 -1,1 -1,2l-8 7c-1,0 -1,0 -2,1 -1,1 -1,1 -2,1l-19 17c2,1 24,0 26,0 11,0 77,1 78,0l-102 0c1,-1 15,-13 18,-16l3 -2c3,-2 2,-2 4,-4l11 -9c2,-2 5,-4 7,-6l7 -6c0,-1 0,0 0,-1 1,1 4,3 5,5 1,0 1,0 1,0l28 24c0,0 1,0 1,1l7 6c1,1 9,7 10,8 -1,-6 0,-13 0,-19l0 -50c0,-2 0,-4 -1,-5 -4,3 -8,5 -13,8l-25 15c-3,1 -5,2 -7,3 -1,1 -5,4 -6,4z"/><path fill="#fefefe" d="M204 300l19-17c1 0 1 0 2-1 1-1 1-1 2-1l8-7c0-1 1-1 1-2 2-1 6-5 8-7 1 0 1 0 2-1l9-8c1 0 0 1 1 0-3-2-5-3-7-4-2-1-4-2-6-4-5-2-9-4-13-7l-26-15c0 1 0 67 0 74zM306 212c-1-1-22 0-25 0-8 0-17 0-25 0-6 0-49-1-51 0 4 2 9 5 13 7 5 3 37 21 38 21 0 0 48-27 50-28z"/><path fill="#d42b25" d="M308 226l0 74c4,0 7,0 10,-2 6,-5 4,-13 4,-20l0 -49c0,-4 1,-9 -1,-11 -1,1 -3,2 -3,2l-7 4c-1,1 -3,2 -3,2z"/></svg>