<?xml version="1.0" encoding="UTF-8"?>
<!DOCTYPE svg PUBLIC "-//W3C//DTD SVG 1.1//EN" "http://www.w3.org/Graphics/SVG/1.1/DTD/svg11.dtd">
<!-- Creator: CorelDRAW 2019 (64-Bit) -->
<svg xmlns="http://www.w3.org/2000/svg" xml:space="preserve" width="6.06865cm" height="1.26999cm" version="1.1" style="shape-rendering:geometricPrecision; text-rendering:geometricPrecision; image-rendering:optimizeQuality; fill-rule:evenodd; clip-rule:evenodd"
viewBox="0 0 3997.03 836.46"
 xmlns:xlink="http://www.w3.org/1999/xlink"
 xmlns:xodm="http://www.corel.com/coreldraw/odm/2003">
 <defs>
  <style type="text/css">
   <![CDATA[
    .fil1 {fill:#64C2C7;fill-rule:nonzero}
    .fil0 {fill:#FEFEFE;fill-rule:nonzero}
   ]]>
  </style>
 </defs>
 <g id="Capa_x0020_1">
  <metadata id="CorelCorpID_0Corel-Layer"/>
  <g id="_2137368730368">
   <path class="fil0" d="M112.24 418.19c0,30.98 -25.08,56.16 -56.11,56.16 -30.99,0 -56.14,-25.19 -56.14,-56.16 0,-31.02 25.15,-56.13 56.14,-56.13 31.03,0 56.11,25.11 56.11,56.13z"/>
   <path class="fil0" d="M3997.03 418.19c0,30.98 -25.14,56.16 -56.13,56.16 -30.97,0 -56.15,-25.19 -56.15,-56.16 0,-31.02 25.18,-56.13 56.15,-56.13 30.99,0 56.13,25.11 56.13,56.13z"/>
   <path class="fil0" d="M3491.33 43.65c0,0 -10.15,219.21 133.58,278.73 143.71,59.47 251.12,-55.19 252.58,-145.18 1.46,-89.98 -88.55,-146.62 -153.86,-133.55 -65.33,13.05 -113.23,88.05 -56.64,158.72 56.64,70.61 170.84,-15.76 101.62,-83.23 -34.35,-31 -74.04,7.28 -74.04,7.28 0,0 11.61,-32.44 47.4,-34.37 35.84,-1.96 91,50.29 60.03,105.47 -30.99,55.17 -107.42,78.4 -165.48,23.22 -54.59,-51.81 -33.9,-138.37 10.62,-178.92 26.38,-24.07 115.18,-90.13 230.35,19.27 115.18,109.36 11.62,296.11 -139.36,328.09 -150.99,31.88 -297.12,-122.97 -290.35,-293.26l-2905.82 0c6.78,170.29 -139.37,325.14 -290.34,293.26 -150.98,-31.98 -254.52,-218.73 -139.39,-328.09 115.2,-109.4 204.02,-43.34 230.35,-19.27 44.52,40.55 65.21,127.1 10.66,178.92 -58.07,55.18 -134.53,31.96 -165.5,-23.22 -30.98,-55.18 24.19,-107.43 59.96,-105.47 35.84,1.93 47.46,34.37 47.46,34.37 0,0 -39.68,-38.29 -74.04,-7.28 -69.19,67.47 45,153.84 101.61,83.23 56.64,-70.68 8.71,-145.67 -56.61,-158.72 -65.33,-13.07 -155.32,43.57 -153.9,133.55 1.48,89.99 108.9,204.66 252.63,145.18 143.71,-59.52 133.54,-278.73 133.54,-278.73l2992.92 0z"/>
   <path class="fil0" d="M3491.33 792.79c0,0 -10.15,-219.21 133.58,-278.7 143.71,-59.53 251.12,55.13 252.58,145.17 1.46,89.96 -88.55,146.65 -153.86,133.53 -65.33,-13.03 -113.23,-88.02 -56.64,-158.67 56.64,-70.67 170.84,15.75 101.62,83.19 -34.35,30.99 -74.04,-7.23 -74.04,-7.23 0,0 11.61,32.37 47.4,34.33 35.84,1.93 91,-50.31 60.03,-105.49 -30.99,-55.15 -107.42,-78.4 -165.48,-23.24 -54.59,51.91 -33.9,138.43 10.62,179.02 26.38,24.02 115.18,90.05 230.35,-19.35 115.18,-109.29 11.62,-296.08 -139.36,-328.03 -150.99,-31.96 -297.12,122.89 -290.35,293.26l-2.4 0 -2903.42 0c6.78,-170.37 -139.37,-325.23 -290.34,-293.26 -150.98,31.96 -254.52,218.75 -139.39,328.03 115.2,109.4 204.02,43.37 230.35,19.35 44.52,-40.6 65.21,-127.11 10.66,-179.02 -58.07,-55.15 -134.53,-31.9 -165.5,23.24 -30.98,55.18 24.19,107.42 59.96,105.49 35.84,-1.96 47.46,-34.33 47.46,-34.33 0,0 -39.68,38.22 -74.04,7.23 -69.19,-67.44 45,-153.86 101.61,-83.19 56.64,70.65 8.71,145.64 -56.61,158.67 -65.33,13.12 -155.32,-43.57 -153.9,-133.53 1.48,-90.04 108.9,-204.7 252.63,-145.17 143.71,59.49 133.54,278.7 133.54,278.7l2987.61 0 5.3 0z"/>
  </g>
  <g id="_2137368733824">
   <path class="fil0" d="M558.99 596.65m0 -364.64l81.8 0 36.46 260.97 1.05 0 36.46 -260.97 81.78 0 0 364.64 -54.17 0 0 -276.08 -1.04 0 -41.68 276.08 -47.92 0 -41.67 -276.08 -1.04 0 0 276.08 -50.02 0 0 -364.64zm276.09 364.64m87 5.2c-28.12,0 -49.49,-7.8 -64.59,-23.95 -15.11,-16.16 -22.41,-38.54 -22.41,-67.72l0 -191.69c0,-29.17 7.3,-51.58 22.41,-67.72 15.1,-16.14 36.47,-23.97 64.59,-23.97 28.14,0 49.48,7.82 64.59,23.97 15.11,16.14 22.4,38.55 22.4,67.72l0 191.69c0,29.18 -7.29,51.56 -22.4,67.72 -15.11,16.15 -36.46,23.95 -64.59,23.95zm0 -52.08c19.8,0 29.7,-11.98 29.7,-35.95l0 -198.99c0,-23.95 -9.9,-35.94 -29.7,-35.94 -19.79,0 -29.69,11.99 -29.69,35.94l0 198.99c0,23.97 9.9,35.95 29.69,35.95zm115.64 46.88m84.38 5.2c-27.61,0 -48.96,-7.8 -63.03,-23.95 -14.07,-15.63 -21.35,-38.04 -21.35,-67.72l0 -20.84 54.17 0 0 25.01c0,23.44 9.9,35.42 29.7,35.42 9.89,0 17.18,-3.14 22.39,-8.85 4.7,-5.73 7.3,-14.6 7.3,-27.61 0,-15.1 -3.64,-28.64 -10.41,-40.64 -6.78,-11.45 -19.8,-25.52 -38.55,-41.67 -23.44,-20.84 -40.11,-39.6 -49.48,-56.78 -9.39,-16.67 -14.07,-35.42 -14.07,-56.78 0,-28.65 7.3,-51.05 21.87,-67.2 14.58,-15.62 35.95,-23.44 63.56,-23.44 27.61,0 48.44,7.82 62.5,23.44 14.07,16.15 20.84,38.55 20.84,68.25l0 15.11 -54.18 0 0 -18.76c0,-12.5 -2.61,-21.87 -7.28,-27.61 -4.7,-5.73 -11.99,-8.33 -21.37,-8.33 -19.28,0 -28.65,11.47 -28.65,34.91 0,13.01 3.66,25.52 10.94,36.98 6.77,11.46 19.8,25.52 38.55,41.68 23.97,20.83 40.64,39.58 49.48,56.77 8.87,17.2 13.54,36.98 13.54,59.91 0,29.69 -7.28,52.61 -21.87,68.76 -15.11,16.15 -36.46,23.95 -64.59,23.95zm115.64 -5.2m84.39 5.2c-27.61,0 -48.45,-7.8 -62.51,-23.44 -14.58,-15.62 -21.88,-37.5 -21.88,-66.15l0 -195.86c0,-28.65 7.3,-50.52 21.88,-66.16 14.06,-15.62 34.9,-23.44 62.51,-23.44 27.61,0 48.44,7.82 63.03,23.44 14.07,15.64 21.35,37.51 21.35,66.16l0 38.55 -54.17 0 0 -42.19c0,-22.4 -9.39,-33.87 -28.65,-33.87 -19.28,0 -28.66,11.47 -28.66,33.87l0 203.66c0,22.41 9.39,33.35 28.66,33.35 19.26,0 28.65,-10.94 28.65,-33.35l0 -55.73 54.17 0 0 51.56c0,28.66 -7.28,50.54 -21.35,66.15 -14.6,15.64 -35.42,23.44 -63.03,23.44zm103.66 -5.2m59.39 -364.64l77.62 0 59.38 364.64 -57.29 0 -10.41 -72.4 0 1.04 -65.12 0 -10.41 71.36 -53.15 0 59.39 -364.64zm62.52 243.79l-25.54 -180.24 -1.04 0 -25 180.24 51.58 0z"/>
   <path class="fil0" d="M1610.72 596.65m59.92 -312.54l-59.92 0 0 -52.1 177.11 0 0 52.1 -59.9 0 0 312.54 -57.29 0 0 -312.54zm140.64 312.54m87 5.2c-28.12,0 -49.49,-7.8 -64.59,-23.95 -15.11,-16.16 -22.41,-38.54 -22.41,-67.72l0 -191.69c0,-29.17 7.3,-51.58 22.41,-67.72 15.1,-16.14 36.47,-23.97 64.59,-23.97 28.14,0 49.48,7.82 64.59,23.97 15.11,16.14 22.4,38.55 22.4,67.72l0 191.69c0,29.18 -7.29,51.56 -22.4,67.72 -15.11,16.15 -36.46,23.95 -64.59,23.95zm0 -52.08c19.8,0 29.7,-11.98 29.7,-35.95l0 -198.99c0,-23.95 -9.9,-35.94 -29.7,-35.94 -19.79,0 -29.69,11.99 -29.69,35.94l0 198.99c0,23.97 9.9,35.95 29.69,35.95z"/>
  </g>
  <polygon class="fil1" points="2072.04,594.76 2152.75,594.76 2203.07,233.93 2145.63,233.93 2112.39,504.55 2079.16,233.93 2021.71,233.93 "/>
  <polygon id="1" class="fil1" points="2224.02,594.76 2281,594.76 2281,233.93 2224.02,233.93 "/>
  <polygon id="2" class="fil1" points="2330.43,594.76 2387.41,594.76 2387.41,419.56 2449.13,594.76 2496.61,594.76 2496.61,233.93 2439.64,233.93 2439.64,410.54 2377.44,233.93 2330.43,233.93 "/>
  <path id="3" class="fil1" d="M2619.63 601.88c23.75,0 42.74,-7.12 56.99,-21.37 14.24,-14.24 21.36,-33.23 21.36,-56.97l0 -218.39c0,-23.42 -7.2,-42.34 -21.6,-56.73 -14.4,-14.4 -33.31,-21.6 -56.75,-21.6 -23.74,0 -42.73,7.12 -56.97,21.37 -14.24,14.24 -21.36,33.23 -21.36,56.97l0 218.39c0,23.43 7.2,42.34 21.6,56.73 14.4,14.4 33.31,21.6 56.73,21.6zm0 -53.17c-6.33,0 -11.47,-1.98 -15.43,-5.93 -3.96,-3.96 -5.93,-9.1 -5.93,-15.43l0 -225.99c0,-6.33 1.98,-11.47 5.93,-15.43 3.95,-3.95 9.1,-5.93 15.43,-5.93 6.34,0 11.48,1.98 15.44,5.93 3.96,3.96 5.93,9.1 5.93,15.43l0 225.99c0,6.33 -1.98,11.47 -5.93,15.43 -3.96,3.96 -9.1,5.93 -15.44,5.93z"/>
  <polygon id="4" class="fil1" points="2775.9,594.76 2832.87,594.76 2832.87,287.11 2896.97,287.11 2896.97,233.93 2711.8,233.93 2711.8,287.11 2775.9,287.11 "/>
  <polygon id="5" class="fil1" points="2920.28,594.76 3067.46,594.76 3067.46,541.58 2977.26,541.58 2977.26,440.93 3048.47,440.93 3048.47,387.75 2977.26,387.75 2977.26,287.11 3067.46,287.11 3067.46,233.93 2920.28,233.93 "/>
  <path id="6" class="fil1" d="M3173.87 601.88c23.74,0 42.73,-7.12 56.98,-21.37 14.24,-14.24 21.36,-33.23 21.36,-56.97l0 -42.73 -56.97 0 0 46.53c0,6.33 -1.98,11.47 -5.93,15.43 -3.96,3.96 -9.1,5.93 -15.43,5.93 -6.33,0 -11.47,-1.98 -15.43,-5.93 -3.96,-3.96 -5.93,-9.1 -5.93,-15.43l0 -225.99c0,-6.33 1.98,-11.47 5.93,-15.43 3.95,-3.95 9.1,-5.93 15.43,-5.93 6.34,0 11.47,1.98 15.43,5.93 3.96,3.96 5.93,9.1 5.93,15.43l0 46.53 56.97 0 0 -42.73c0,-23.42 -7.2,-42.34 -21.6,-56.73 -14.4,-14.4 -33.31,-21.6 -56.74,-21.6 -23.74,0 -42.73,7.12 -56.97,21.37 -14.24,14.24 -21.36,33.23 -21.36,56.97l0 218.39c0,23.43 7.2,42.34 21.6,56.73 14.4,14.4 33.31,21.6 56.73,21.6z"/>
  <path id="7" class="fil1" d="M3249.42 594.76l57.45 0 9.5 -81.18 47.48 0 9.97 81.18 56.97 0 -50.32 -360.83 -80.25 0 -50.8 360.83zm73.6 -134.36l17.09 -140.53 17.57 140.53 -34.66 0z"/>
 </g>
</svg>
