<svg xmlns="http://www.w3.org/2000/svg" width="32" height="32" viewBox="0 0 32 32"><g transform="translate(0 -1020.362)"><circle cx="16" cy="1036.362" r="16" fill="#ef4c45" fill-rule="evenodd"/><path fill="#df2209" style="line-height:normal;text-indent:0;text-align:start;text-decoration-line:none;text-decoration-style:solid;text-decoration-color:#000;text-transform:none;block-progression:tb;isolation:auto;mix-blend-mode:normal" d="M 23.074219 30.341797 A 16 16 0 0 0 23.257812 30.259766 A 16 16 0 0 0 24.644531 29.462891 A 16 16 0 0 0 25.945312 28.533203 A 16 16 0 0 0 27.146484 27.478516 A 16 16 0 0 0 28.238281 26.306641 A 16 16 0 0 0 29.205078 25.035156 A 16 16 0 0 0 30.041016 23.669922 A 16 16 0 0 0 30.521484 22.677734 L 19.15625 11.3125 C 19.14482 11.301071 19.130693 11.292556 19.119141 11.28125 C 19.030772 11.19475 18.927239 11.125895 18.832031 11.046875 C 18.711505 10.946829 18.597422 10.839131 18.466797 10.751953 C 18.302195 10.642108 18.122266 10.556384 17.943359 10.46875 C 17.868131 10.431903 17.800172 10.384236 17.722656 10.351562 C 17.529142 10.269964 17.323397 10.216083 17.117188 10.162109 C 17.038139 10.141436 16.965452 10.106225 16.884766 10.089844 C 16.59624 10.03119 16.29799 10 15.992188 10 C 13.512829 10 11.492185 12.0207 11.492188 14.5 A 0.50004997 0.50004997 0 0 0 11.515625 14.65625 C 11.557165 16.23605 12.241331 17.616938 13.046875 18.898438 C 13.877887 20.220538 14.841009 21.461263 15.458984 22.726562 A 0.50005 0.50005 0 0 0 15.689453 22.957031 L 23.074219 30.341797 z " color="#000" font-family="sans-serif" font-weight="400" transform="translate(0 1020.362)"/><path fill="#fff" style="line-height:normal;text-indent:0;text-align:start;text-decoration-line:none;text-decoration-style:solid;text-decoration-color:#000;text-transform:none;block-progression:tb;isolation:auto;mix-blend-mode:normal" d="m 7.9921875,2 c -2.4793586,0 -4.5000027,2.0207 -4.5,4.5 a 0.50004997,0.50004997 0 0 0 0.023437,0.15625 c 0.041536,1.5798342 0.7257056,2.9606056 1.53125,4.242188 0.8310122,1.3221 1.7941346,2.562824 2.4121094,3.828124 a 0.50005,0.50005 0 0 0 0.8945312,0.0098 c 0.6488495,-1.2643 1.6614049,-2.505925 2.5351559,-3.828125 0.873752,-1.3220999 1.61914,-2.7499905 1.61914,-4.4003905 a 0.50005,0.50005 0 0 0 -0.0332,-0.1855469 C 12.378905,3.9265755 10.410779,2 7.9921875,2 Z m 0,1 C 9.9311056,3 11.49219,4.5611 11.492188,6.5 a 0.50004997,0.50004997 0 0 0 0.0098,0.1074219 c -0.0299,1.3077973 -0.635522,2.5186537 -1.449219,3.7500001 -0.6878023,1.0407 -1.4635764,2.115722 -2.1347652,3.232422 C 7.2808465,12.477844 6.5468307,11.404988 5.8945312,10.367188 5.1006637,9.1041875 4.5078125,7.8616125 4.5078125,6.5078125 A 0.50005,0.50005 0 0 0 4.5,6.4140625 C 4.5464063,4.516161 6.0827033,3 7.9921875,3 Z m 0,2.0039062 c -0.8225048,0 -1.5,0.6775001 -1.5,1.5 0,0.8225 0.6774952,1.5 1.5,1.5 0.8225048,0 1.5,-0.6775 1.5,-1.5 0,-0.8224999 -0.6774952,-1.5 -1.5,-1.5 z m 0,1 c 0.2820647,0 0.5,0.2180001 0.5,0.5 0,0.2821 -0.2179353,0.5 -0.5,0.5 -0.2820647,0 -0.5,-0.2179 -0.5,-0.5 0,-0.2819999 0.2179353,-0.5 0.5,-0.5 z" color="#000" font-family="sans-serif" font-weight="400" overflow="visible" transform="translate(8 1028.362)"/></g></svg>